<mxfile host="app.diagrams.net" modified="2020-09-11T02:31:38.879Z" agent="5.0 (Windows NT 10.0; Win64; x64) AppleWebKit/537.36 (KHTML, like Gecko) Chrome/85.0.4183.83 Safari/537.36" etag="-ptEEu4T7EoKHcp87mvk" version="13.6.9" type="github">
  <diagram id="DA3Gbq43gguFG6_EfszV" name="Page-1">
    <mxGraphModel dx="782" dy="437" grid="1" gridSize="10" guides="1" tooltips="1" connect="1" arrows="1" fold="1" page="1" pageScale="1" pageWidth="827" pageHeight="1169" math="0" shadow="0">
      <root>
        <mxCell id="0" />
        <mxCell id="1" parent="0" />
        <mxCell id="VENuk2hhmzvia7-ZxIIn-3" value="RenderObjectElement" style="rounded=0;whiteSpace=wrap;html=1;fillColor=#dae8fc;strokeColor=#6c8ebf;" vertex="1" parent="1">
          <mxGeometry x="190" y="140" width="130" height="50" as="geometry" />
        </mxCell>
        <mxCell id="VENuk2hhmzvia7-ZxIIn-11" style="edgeStyle=orthogonalEdgeStyle;rounded=0;orthogonalLoop=1;jettySize=auto;html=1;exitX=0.5;exitY=1;exitDx=0;exitDy=0;entryX=0.5;entryY=0;entryDx=0;entryDy=0;" edge="1" parent="1" source="VENuk2hhmzvia7-ZxIIn-4" target="VENuk2hhmzvia7-ZxIIn-3">
          <mxGeometry relative="1" as="geometry" />
        </mxCell>
        <mxCell id="VENuk2hhmzvia7-ZxIIn-12" style="edgeStyle=orthogonalEdgeStyle;rounded=0;orthogonalLoop=1;jettySize=auto;html=1;exitX=0.5;exitY=1;exitDx=0;exitDy=0;" edge="1" parent="1" source="VENuk2hhmzvia7-ZxIIn-4" target="VENuk2hhmzvia7-ZxIIn-5">
          <mxGeometry relative="1" as="geometry" />
        </mxCell>
        <mxCell id="VENuk2hhmzvia7-ZxIIn-4" value="Element" style="rounded=0;whiteSpace=wrap;html=1;fillColor=#fff2cc;strokeColor=#d6b656;" vertex="1" parent="1">
          <mxGeometry x="315" y="40" width="90" height="50" as="geometry" />
        </mxCell>
        <mxCell id="VENuk2hhmzvia7-ZxIIn-13" style="edgeStyle=orthogonalEdgeStyle;rounded=0;orthogonalLoop=1;jettySize=auto;html=1;exitX=0.5;exitY=1;exitDx=0;exitDy=0;entryX=0.5;entryY=0;entryDx=0;entryDy=0;" edge="1" parent="1" source="VENuk2hhmzvia7-ZxIIn-5" target="VENuk2hhmzvia7-ZxIIn-6">
          <mxGeometry relative="1" as="geometry" />
        </mxCell>
        <mxCell id="VENuk2hhmzvia7-ZxIIn-14" style="edgeStyle=orthogonalEdgeStyle;rounded=0;orthogonalLoop=1;jettySize=auto;html=1;exitX=0.5;exitY=1;exitDx=0;exitDy=0;entryX=0.5;entryY=0;entryDx=0;entryDy=0;" edge="1" parent="1" source="VENuk2hhmzvia7-ZxIIn-5" target="VENuk2hhmzvia7-ZxIIn-7">
          <mxGeometry relative="1" as="geometry" />
        </mxCell>
        <mxCell id="VENuk2hhmzvia7-ZxIIn-15" style="edgeStyle=orthogonalEdgeStyle;rounded=0;orthogonalLoop=1;jettySize=auto;html=1;exitX=0.5;exitY=1;exitDx=0;exitDy=0;entryX=0.5;entryY=0;entryDx=0;entryDy=0;" edge="1" parent="1" source="VENuk2hhmzvia7-ZxIIn-5" target="VENuk2hhmzvia7-ZxIIn-8">
          <mxGeometry relative="1" as="geometry" />
        </mxCell>
        <mxCell id="VENuk2hhmzvia7-ZxIIn-5" value="CompomnentElement" style="rounded=0;whiteSpace=wrap;html=1;fillColor=#d5e8d4;strokeColor=#82b366;" vertex="1" parent="1">
          <mxGeometry x="400" y="140" width="130" height="50" as="geometry" />
        </mxCell>
        <mxCell id="VENuk2hhmzvia7-ZxIIn-16" style="edgeStyle=orthogonalEdgeStyle;rounded=0;orthogonalLoop=1;jettySize=auto;html=1;exitX=0.5;exitY=1;exitDx=0;exitDy=0;" edge="1" parent="1" source="VENuk2hhmzvia7-ZxIIn-6" target="VENuk2hhmzvia7-ZxIIn-9">
          <mxGeometry relative="1" as="geometry" />
        </mxCell>
        <mxCell id="VENuk2hhmzvia7-ZxIIn-17" style="edgeStyle=orthogonalEdgeStyle;rounded=0;orthogonalLoop=1;jettySize=auto;html=1;exitX=0.5;exitY=1;exitDx=0;exitDy=0;" edge="1" parent="1" source="VENuk2hhmzvia7-ZxIIn-6" target="VENuk2hhmzvia7-ZxIIn-10">
          <mxGeometry relative="1" as="geometry" />
        </mxCell>
        <mxCell id="VENuk2hhmzvia7-ZxIIn-6" value="ProxyElement" style="rounded=0;whiteSpace=wrap;html=1;fillColor=#d5e8d4;strokeColor=#82b366;" vertex="1" parent="1">
          <mxGeometry x="293" y="240" width="100" height="50" as="geometry" />
        </mxCell>
        <mxCell id="VENuk2hhmzvia7-ZxIIn-7" value="StatefulElement" style="rounded=0;whiteSpace=wrap;html=1;fillColor=#d5e8d4;strokeColor=#82b366;" vertex="1" parent="1">
          <mxGeometry x="413" y="240" width="104" height="50" as="geometry" />
        </mxCell>
        <mxCell id="VENuk2hhmzvia7-ZxIIn-8" value="StatelessElement" style="rounded=0;whiteSpace=wrap;html=1;fillColor=#d5e8d4;strokeColor=#82b366;" vertex="1" parent="1">
          <mxGeometry x="533" y="240" width="110" height="50" as="geometry" />
        </mxCell>
        <mxCell id="VENuk2hhmzvia7-ZxIIn-9" value="ParentDataElement" style="rounded=0;whiteSpace=wrap;html=1;fillColor=#d5e8d4;strokeColor=#82b366;" vertex="1" parent="1">
          <mxGeometry x="200" y="330" width="120" height="50" as="geometry" />
        </mxCell>
        <mxCell id="VENuk2hhmzvia7-ZxIIn-10" value="InheritedElement" style="rounded=0;whiteSpace=wrap;html=1;fillColor=#d5e8d4;strokeColor=#82b366;" vertex="1" parent="1">
          <mxGeometry x="360" y="330" width="120" height="50" as="geometry" />
        </mxCell>
      </root>
    </mxGraphModel>
  </diagram>
</mxfile>
